<?xml version="1.0" encoding="us-ascii" standalone="no"?><svg xmlns="http://www.w3.org/2000/svg" xmlns:xlink="http://www.w3.org/1999/xlink" contentStyleType="text/css" height="574px" preserveAspectRatio="none" style="width:870px;height:574px;background:#FFFFFF;" version="1.1" viewBox="0 0 870 574" width="870px" zoomAndPan="magnify"><defs/><g><!--class Robot--><g id="elem_Robot"><rect codeLine="3" fill="#F1F1F1" height="97.4648" id="Robot" rx="2.5" ry="2.5" style="stroke:#181818;stroke-width:0.5;" width="191" x="459" y="296.37"/><ellipse cx="529.75" cy="312.37" fill="#ADD1B2" rx="11" ry="11" style="stroke:#181818;stroke-width:1.0;"/><path d="M532.2231,318.5131 Q531.6421,318.8119 531.0029,318.9613 Q530.3638,319.1107 529.6582,319.1107 Q527.1514,319.1107 525.8315,317.4589 Q524.5117,315.807 524.5117,312.6859 Q524.5117,309.5565 525.8315,307.9047 Q527.1514,306.2528 529.6582,306.2528 Q530.3638,306.2528 531.0112,306.4022 Q531.6587,306.5516 532.2231,306.8505 L532.2231,309.5731 Q531.5923,308.9921 530.9988,308.7223 Q530.4053,308.4525 529.7744,308.4525 Q528.4297,308.4525 527.7449,309.5192 Q527.0601,310.5858 527.0601,312.6859 Q527.0601,314.7777 527.7449,315.8444 Q528.4297,316.911 529.7744,316.911 Q530.4053,316.911 530.9988,316.6412 Q531.5923,316.3715 532.2231,315.7904 Z " fill="#000000"/><text fill="#000000" font-family="sans-serif" font-size="14" lengthAdjust="spacing" textLength="41" x="550.25" y="317.661">Robot</text><line style="stroke:#181818;stroke-width:0.5;" x1="460" x2="649" y1="328.37" y2="328.37"/><line style="stroke:#181818;stroke-width:0.5;" x1="460" x2="649" y1="336.37" y2="336.37"/><ellipse cx="470" cy="350.1141" fill="#84BE84" rx="3" ry="3" style="stroke:#038048;stroke-width:1.0;"/><text fill="#000000" font-family="sans-serif" font-size="14" lengthAdjust="spacing" textLength="165" x="479" y="353.9052">void setPos(qreal, qreal)</text><ellipse cx="470" cy="366.6024" fill="#84BE84" rx="3" ry="3" style="stroke:#038048;stroke-width:1.0;"/><text fill="#000000" font-family="sans-serif" font-size="14" lengthAdjust="spacing" textLength="114" x="479" y="370.3934">QPointF getPos()</text><ellipse cx="470" cy="383.0907" fill="#84BE84" rx="3" ry="3" style="stroke:#038048;stroke-width:1.0;"/><text fill="#000000" font-family="sans-serif" font-size="14" lengthAdjust="spacing" textLength="82" x="479" y="386.8817">bool move()</text></g><!--class AutoRobot--><g id="elem_AutoRobot"><rect codeLine="9" fill="#F1F1F1" height="212.8828" id="AutoRobot" rx="2.5" ry="2.5" style="stroke:#181818;stroke-width:0.5;" width="329" x="390" y="7"/><ellipse cx="513.25" cy="23" fill="#ADD1B2" rx="11" ry="11" style="stroke:#181818;stroke-width:1.0;"/><path d="M515.7231,29.1431 Q515.1421,29.4419 514.5029,29.5913 Q513.8638,29.7407 513.1582,29.7407 Q510.6514,29.7407 509.3315,28.0889 Q508.0117,26.437 508.0117,23.3159 Q508.0117,20.1865 509.3315,18.5347 Q510.6514,16.8828 513.1582,16.8828 Q513.8638,16.8828 514.5112,17.0322 Q515.1587,17.1816 515.7231,17.4805 L515.7231,20.2031 Q515.0923,19.6221 514.4988,19.3523 Q513.9053,19.0825 513.2744,19.0825 Q511.9297,19.0825 511.2449,20.1492 Q510.5601,21.2158 510.5601,23.3159 Q510.5601,25.4077 511.2449,26.4744 Q511.9297,27.541 513.2744,27.541 Q513.9053,27.541 514.4988,27.2712 Q515.0923,27.0015 515.7231,26.4204 Z " fill="#000000"/><text fill="#000000" font-family="sans-serif" font-size="14" lengthAdjust="spacing" textLength="74" x="533.75" y="28.291">AutoRobot</text><line style="stroke:#181818;stroke-width:0.5;" x1="391" x2="718" y1="39" y2="39"/><line style="stroke:#181818;stroke-width:0.5;" x1="391" x2="718" y1="47" y2="47"/><ellipse cx="401" cy="60.7441" fill="#84BE84" rx="3" ry="3" style="stroke:#038048;stroke-width:1.0;"/><text fill="#000000" font-family="sans-serif" font-size="14" lengthAdjust="spacing" textLength="158" x="410" y="64.5352">QRectF boundingRect()</text><ellipse cx="401" cy="77.2324" fill="#84BE84" rx="3" ry="3" style="stroke:#038048;stroke-width:1.0;"/><text fill="#000000" font-family="sans-serif" font-size="14" lengthAdjust="spacing" textLength="252" x="410" y="81.0234">bool willCollide(QPointF, qreal, bool)</text><ellipse cx="401" cy="93.7207" fill="#84BE84" rx="3" ry="3" style="stroke:#038048;stroke-width:1.0;"/><text fill="#000000" font-family="sans-serif" font-size="14" lengthAdjust="spacing" textLength="269" x="410" y="97.5117">void doRotationStep(RotationDirection)</text><ellipse cx="401" cy="110.209" fill="#84BE84" rx="3" ry="3" style="stroke:#038048;stroke-width:1.0;"/><text fill="#000000" font-family="sans-serif" font-size="14" lengthAdjust="spacing" textLength="82" x="410" y="114">bool move()</text><ellipse cx="401" cy="126.6973" fill="#84BE84" rx="3" ry="3" style="stroke:#038048;stroke-width:1.0;"/><text fill="#000000" font-family="sans-serif" font-size="14" lengthAdjust="spacing" textLength="235" x="410" y="130.4883">void setCollisionLookAhead(qreal)</text><ellipse cx="401" cy="143.1855" fill="#84BE84" rx="3" ry="3" style="stroke:#038048;stroke-width:1.0;"/><text fill="#000000" font-family="sans-serif" font-size="14" lengthAdjust="spacing" textLength="208" x="410" y="146.9766">qreal getCollisionLookAhead()</text><ellipse cx="401" cy="159.6738" fill="#84BE84" rx="3" ry="3" style="stroke:#038048;stroke-width:1.0;"/><text fill="#000000" font-family="sans-serif" font-size="14" lengthAdjust="spacing" textLength="303" x="410" y="163.4648">void setRotationDirection(RotationDirection)</text><ellipse cx="401" cy="176.1621" fill="#84BE84" rx="3" ry="3" style="stroke:#038048;stroke-width:1.0;"/><text fill="#000000" font-family="sans-serif" font-size="14" lengthAdjust="spacing" textLength="276" x="410" y="179.9531">RotationDirection getRotationDirection()</text><ellipse cx="401" cy="192.6504" fill="#84BE84" rx="3" ry="3" style="stroke:#038048;stroke-width:1.0;"/><text fill="#000000" font-family="sans-serif" font-size="14" lengthAdjust="spacing" textLength="183" x="410" y="196.4414">void setTargetAngle(qreal)</text><ellipse cx="401" cy="209.1387" fill="#84BE84" rx="3" ry="3" style="stroke:#038048;stroke-width:1.0;"/><text fill="#000000" font-family="sans-serif" font-size="14" lengthAdjust="spacing" textLength="156" x="410" y="212.9297">qreal getTargetAngle()</text></g><!--class GameObject--><g id="elem_GameObject"><rect codeLine="22" fill="#F1F1F1" height="89.5977" id="GameObject" rx="2.5" ry="2.5" style="stroke:#181818;stroke-width:0.5;" width="238" x="287.5" y="474.26"/><ellipse cx="360.75" cy="494.5705" fill="#ADD1B2" rx="11" ry="11" style="stroke:#181818;stroke-width:1.0;"/><path d="M363.2231,500.7136 Q362.6421,501.0124 362.0029,501.1619 Q361.3638,501.3113 360.6582,501.3113 Q358.1514,501.3113 356.8315,499.6594 Q355.5117,498.0076 355.5117,494.8865 Q355.5117,491.7571 356.8315,490.1052 Q358.1514,488.4534 360.6582,488.4534 Q361.3638,488.4534 362.0112,488.6028 Q362.6587,488.7522 363.2231,489.051 L363.2231,491.7737 Q362.5923,491.1926 361.9988,490.9228 Q361.4053,490.6531 360.7744,490.6531 Q359.4297,490.6531 358.7449,491.7197 Q358.0601,492.7864 358.0601,494.8865 Q358.0601,496.9783 358.7449,498.0449 Q359.4297,499.1116 360.7744,499.1116 Q361.4053,499.1116 361.9988,498.8418 Q362.5923,498.572 363.2231,497.991 Z " fill="#000000"/><text fill="#000000" font-family="sans-serif" font-size="12" font-style="italic" lengthAdjust="spacing" textLength="59" x="393.25" y="490.8616">&#171;abstract&#187;</text><text fill="#000000" font-family="sans-serif" font-size="14" lengthAdjust="spacing" textLength="83" x="381.25" y="506.928">GameObject</text><line style="stroke:#181818;stroke-width:0.5;" x1="288.5" x2="524.5" y1="514.8811" y2="514.8811"/><line style="stroke:#181818;stroke-width:0.5;" x1="288.5" x2="524.5" y1="522.8811" y2="522.8811"/><ellipse cx="298.5" cy="536.6252" fill="#84BE84" rx="3" ry="3" style="stroke:#038048;stroke-width:1.0;"/><text fill="#000000" font-family="sans-serif" font-size="14" lengthAdjust="spacing" textLength="212" x="307.5" y="540.4163">virtual void setPos(qreal, qreal)</text><ellipse cx="298.5" cy="553.1135" fill="#84BE84" rx="3" ry="3" style="stroke:#038048;stroke-width:1.0;"/><text fill="#000000" font-family="sans-serif" font-size="14" lengthAdjust="spacing" textLength="161" x="307.5" y="556.9045">virtual QPointF getPos()</text></g><!--class Obstacle--><g id="elem_Obstacle"><rect codeLine="27" fill="#F1F1F1" height="80.9766" id="Obstacle" rx="2.5" ry="2.5" style="stroke:#181818;stroke-width:0.5;" width="191" x="7" y="304.62"/><ellipse cx="68.75" cy="320.62" fill="#ADD1B2" rx="11" ry="11" style="stroke:#181818;stroke-width:1.0;"/><path d="M71.2231,326.7631 Q70.6421,327.0619 70.0029,327.2113 Q69.3638,327.3607 68.6582,327.3607 Q66.1514,327.3607 64.8315,325.7089 Q63.5117,324.057 63.5117,320.9359 Q63.5117,317.8065 64.8315,316.1547 Q66.1514,314.5028 68.6582,314.5028 Q69.3638,314.5028 70.0112,314.6522 Q70.6587,314.8016 71.2231,315.1005 L71.2231,317.8231 Q70.5923,317.2421 69.9988,316.9723 Q69.4053,316.7025 68.7744,316.7025 Q67.4297,316.7025 66.7449,317.7692 Q66.0601,318.8358 66.0601,320.9359 Q66.0601,323.0277 66.7449,324.0944 Q67.4297,325.161 68.7744,325.161 Q69.4053,325.161 69.9988,324.8912 Q70.5923,324.6215 71.2231,324.0404 Z " fill="#000000"/><text fill="#000000" font-family="sans-serif" font-size="14" lengthAdjust="spacing" textLength="59" x="89.25" y="325.911">Obstacle</text><line style="stroke:#181818;stroke-width:0.5;" x1="8" x2="197" y1="336.62" y2="336.62"/><line style="stroke:#181818;stroke-width:0.5;" x1="8" x2="197" y1="344.62" y2="344.62"/><ellipse cx="18" cy="358.3641" fill="#84BE84" rx="3" ry="3" style="stroke:#038048;stroke-width:1.0;"/><text fill="#000000" font-family="sans-serif" font-size="14" lengthAdjust="spacing" textLength="165" x="27" y="362.1552">void setPos(qreal, qreal)</text><ellipse cx="18" cy="374.8524" fill="#84BE84" rx="3" ry="3" style="stroke:#038048;stroke-width:1.0;"/><text fill="#000000" font-family="sans-serif" font-size="14" lengthAdjust="spacing" textLength="114" x="27" y="378.6434">QPointF getPos()</text></g><!--class OverlayWidget--><g id="elem_OverlayWidget"><rect codeLine="32" fill="#F1F1F1" height="48" id="OverlayWidget" rx="2.5" ry="2.5" style="stroke:#181818;stroke-width:0.5;" width="130" x="685.5" y="321.1"/><ellipse cx="700.5" cy="337.1" fill="#ADD1B2" rx="11" ry="11" style="stroke:#181818;stroke-width:1.0;"/><path d="M702.9731,343.2431 Q702.3921,343.5419 701.7529,343.6913 Q701.1138,343.8407 700.4082,343.8407 Q697.9014,343.8407 696.5815,342.1889 Q695.2617,340.537 695.2617,337.4159 Q695.2617,334.2865 696.5815,332.6347 Q697.9014,330.9828 700.4082,330.9828 Q701.1138,330.9828 701.7612,331.1322 Q702.4087,331.2816 702.9731,331.5805 L702.9731,334.3031 Q702.3423,333.7221 701.7488,333.4523 Q701.1553,333.1825 700.5244,333.1825 Q699.1797,333.1825 698.4949,334.2492 Q697.8101,335.3158 697.8101,337.4159 Q697.8101,339.5077 698.4949,340.5744 Q699.1797,341.641 700.5244,341.641 Q701.1553,341.641 701.7488,341.3712 Q702.3423,341.1015 702.9731,340.5204 Z " fill="#000000"/><text fill="#000000" font-family="sans-serif" font-size="14" lengthAdjust="spacing" textLength="98" x="714.5" y="342.391">OverlayWidget</text><line style="stroke:#181818;stroke-width:0.5;" x1="686.5" x2="814.5" y1="353.1" y2="353.1"/><line style="stroke:#181818;stroke-width:0.5;" x1="686.5" x2="814.5" y1="361.1" y2="361.1"/></g><!--class ParamWidget--><g id="elem_ParamWidget"><rect codeLine="35" fill="#F1F1F1" height="130.4414" id="ParamWidget" rx="2.5" ry="2.5" style="stroke:#181818;stroke-width:0.5;" width="191" x="233" y="279.88"/><ellipse cx="279.25" cy="295.88" fill="#ADD1B2" rx="11" ry="11" style="stroke:#181818;stroke-width:1.0;"/><path d="M281.7231,302.0231 Q281.1421,302.3219 280.5029,302.4713 Q279.8638,302.6207 279.1582,302.6207 Q276.6514,302.6207 275.3315,300.9689 Q274.0117,299.317 274.0117,296.1959 Q274.0117,293.0665 275.3315,291.4147 Q276.6514,289.7628 279.1582,289.7628 Q279.8638,289.7628 280.5112,289.9122 Q281.1587,290.0616 281.7231,290.3605 L281.7231,293.0831 Q281.0923,292.5021 280.4988,292.2323 Q279.9053,291.9625 279.2744,291.9625 Q277.9297,291.9625 277.2449,293.0292 Q276.5601,294.0958 276.5601,296.1959 Q276.5601,298.2877 277.2449,299.3544 Q277.9297,300.421 279.2744,300.421 Q279.9053,300.421 280.4988,300.1512 Q281.0923,299.8815 281.7231,299.3004 Z " fill="#000000"/><text fill="#000000" font-family="sans-serif" font-size="14" lengthAdjust="spacing" textLength="90" x="299.75" y="301.171">ParamWidget</text><line style="stroke:#181818;stroke-width:0.5;" x1="234" x2="423" y1="311.88" y2="311.88"/><line style="stroke:#181818;stroke-width:0.5;" x1="234" x2="423" y1="319.88" y2="319.88"/><ellipse cx="244" cy="333.6241" fill="#84BE84" rx="3" ry="3" style="stroke:#038048;stroke-width:1.0;"/><text fill="#000000" font-family="sans-serif" font-size="14" lengthAdjust="spacing" textLength="165" x="253" y="337.4152">void stalk(GameObject*)</text><ellipse cx="244" cy="350.1124" fill="#84BE84" rx="3" ry="3" style="stroke:#038048;stroke-width:1.0;"/><text fill="#000000" font-family="sans-serif" font-size="14" lengthAdjust="spacing" textLength="128" x="253" y="353.9034">void stopStalking()</text><ellipse cx="244" cy="366.6007" fill="#84BE84" rx="3" ry="3" style="stroke:#038048;stroke-width:1.0;"/><text fill="#000000" font-family="sans-serif" font-size="14" lengthAdjust="spacing" textLength="165" x="253" y="370.3917">void updateAutoRobot()</text><ellipse cx="244" cy="383.089" fill="#84BE84" rx="3" ry="3" style="stroke:#038048;stroke-width:1.0;"/><text fill="#000000" font-family="sans-serif" font-size="14" lengthAdjust="spacing" textLength="150" x="253" y="386.88">void updateObstacle()</text><ellipse cx="244" cy="399.5773" fill="#84BE84" rx="3" ry="3" style="stroke:#038048;stroke-width:1.0;"/><text fill="#000000" font-family="sans-serif" font-size="14" lengthAdjust="spacing" textLength="132" x="253" y="403.3683">void updateRobot()</text></g><!--class SimulationEngine--><g id="elem_SimulationEngine"><rect codeLine="43" fill="#F1F1F1" height="97.4648" id="SimulationEngine" rx="2.5" ry="2.5" style="stroke:#181818;stroke-width:0.5;" width="226" x="637.5" y="470.33"/><ellipse cx="686.25" cy="486.33" fill="#ADD1B2" rx="11" ry="11" style="stroke:#181818;stroke-width:1.0;"/><path d="M688.7231,492.4731 Q688.1421,492.7719 687.5029,492.9213 Q686.8638,493.0707 686.1582,493.0707 Q683.6514,493.0707 682.3315,491.4189 Q681.0117,489.767 681.0117,486.6459 Q681.0117,483.5165 682.3315,481.8647 Q683.6514,480.2128 686.1582,480.2128 Q686.8638,480.2128 687.5112,480.3622 Q688.1587,480.5116 688.7231,480.8105 L688.7231,483.5331 Q688.0923,482.9521 687.4988,482.6823 Q686.9053,482.4125 686.2744,482.4125 Q684.9297,482.4125 684.2449,483.4792 Q683.5601,484.5458 683.5601,486.6459 Q683.5601,488.7377 684.2449,489.8044 Q684.9297,490.871 686.2744,490.871 Q686.9053,490.871 687.4988,490.6012 Q688.0923,490.3315 688.7231,489.7504 Z " fill="#000000"/><text fill="#000000" font-family="sans-serif" font-size="14" lengthAdjust="spacing" textLength="120" x="706.75" y="491.621">SimulationEngine</text><line style="stroke:#181818;stroke-width:0.5;" x1="638.5" x2="862.5" y1="502.33" y2="502.33"/><line style="stroke:#181818;stroke-width:0.5;" x1="638.5" x2="862.5" y1="510.33" y2="510.33"/><ellipse cx="648.5" cy="524.0741" fill="#84BE84" rx="3" ry="3" style="stroke:#038048;stroke-width:1.0;"/><text fill="#000000" font-family="sans-serif" font-size="14" lengthAdjust="spacing" textLength="200" x="657.5" y="527.8652">bool saveSimulation(QString)</text><ellipse cx="648.5" cy="540.5624" fill="#84BE84" rx="3" ry="3" style="stroke:#038048;stroke-width:1.0;"/><text fill="#000000" font-family="sans-serif" font-size="14" lengthAdjust="spacing" textLength="200" x="657.5" y="544.3534">bool loadSimulation(QString)</text><ellipse cx="648.5" cy="557.0507" fill="#84BE84" rx="3" ry="3" style="stroke:#038048;stroke-width:1.0;"/><text fill="#000000" font-family="sans-serif" font-size="14" lengthAdjust="spacing" textLength="116" x="657.5" y="560.8417">void clearScene()</text></g><!--link AutoRobot to Robot--><g id="link_AutoRobot_Robot"><path codeLine="50" d="M554.5,220.2 C554.5,246.69 554.5,255.82 554.5,277.92 " fill="none" id="AutoRobot-to-Robot" style="stroke:#181818;stroke-width:1.0;"/><polygon fill="none" points="554.5,295.92,560.5,277.92,548.5,277.92,554.5,295.92" style="stroke:#181818;stroke-width:1.0;"/></g><!--link Obstacle to GameObject--><g id="link_Obstacle_GameObject"><path codeLine="51" d="M172.7,386.05 C186.87,394.1 201.66,402.49 215.5,410.33 C252.44,431.24 277.749,445.5321 312.259,464.9821 " fill="none" id="Obstacle-to-GameObject" style="stroke:#181818;stroke-width:1.0;"/><polygon fill="none" points="327.94,473.82,315.205,459.7552,309.3131,470.2091,327.94,473.82" style="stroke:#181818;stroke-width:1.0;"/></g><!--link Robot to GameObject--><g id="link_Robot_GameObject"><path codeLine="52" d="M513.27,394 C491.72,419.05 477.2645,435.8494 456.2045,460.3094 " fill="none" id="Robot-to-GameObject" style="stroke:#181818;stroke-width:1.0;"/><polygon fill="none" points="444.46,473.95,460.7514,464.2242,451.6577,456.3946,444.46,473.95" style="stroke:#181818;stroke-width:1.0;"/></g><!--reverse link OverlayWidget to SimulationEngine--><g id="link_OverlayWidget_SimulationEngine"><path codeLine="53" d="M750.5,381.29 C750.5,406.96 750.5,437.05 750.5,469.92 " fill="none" id="OverlayWidget-backto-SimulationEngine" style="stroke:#181818;stroke-width:1.0;"/><polygon fill="#181818" points="750.5,369.29,746.5,375.29,750.5,381.29,754.5,375.29,750.5,369.29" style="stroke:#181818;stroke-width:1.0;"/></g><!--reverse link OverlayWidget to GameObject--><g id="link_OverlayWidget_GameObject"><path codeLine="54" d="M714.9324,377.1455 C699.2224,390.2755 687.68,398.64 667.5,410.33 C623.17,436 571.54,458.67 525.96,476.5 " fill="none" id="OverlayWidget-backto-GameObject" style="stroke:#181818;stroke-width:1.0;"/><polygon fill="none" points="724.14,369.45,716.971,370.2285,714.9324,377.1455,722.1014,376.3669,724.14,369.45" style="stroke:#181818;stroke-width:1.0;"/></g><!--reverse link ParamWidget to GameObject--><g id="link_ParamWidget_GameObject"><path codeLine="55" d="M362.7259,421.5488 C372.2759,442.6088 377.71,454.58 386.43,473.8 " fill="none" id="ParamWidget-backto-GameObject" style="stroke:#181818;stroke-width:1.0;"/><polygon fill="none" points="357.77,410.62,356.605,417.7364,362.7259,421.5488,363.8909,414.4325,357.77,410.62" style="stroke:#181818;stroke-width:1.0;"/></g><!--SRC=[dLFRReCm37tdA_9MshL_K5MgrcqlatfXqfuDU6tMW5aIEatT_ds6SWc5Qj9u2R6Fpx5ZUoHM-2PJ5942Oz1uvIbs598LPq_mTtSY6Gk3TaF6_z08QYhAOtnnRpSaK_iezXT4PGs9b4ZeX6puyIhQPMwfGxtTOSIX8ULfBDDzSUiGV4gbxaaf6QDVwLJYKr40naw6CLDRi9BIm6BcrvULrCpAFmE9TSehTGm3ducEomD2xBjbblz5aGEuAwQUzCraUlP2e1z-nVy2cc7BTAzmE4KNu3p_4oIu3j-PLCpd41gh8RABHTDdgMtE17_qkuRr-jxeh9aQ8eN_7Q2Mw8HQmTUhZDd7R8rZ0ngInko8M517lwrpqdavIrbG07ZIEa-QPp5OR8Ppm5TNDE2gGvhS0fdagcpWGxelLkli39w14xO0VnjOpTcuewa8ufk8KfVp01r4c5RD7TKxhF4IP0uoCrwxRBFPz-AoqbxJcjBMFfJd81rhjm6JsQnNtHM46EB4ktswSlq2]--></g></svg>