<?xml version="1.0" encoding="us-ascii" standalone="no"?><svg xmlns="http://www.w3.org/2000/svg" xmlns:xlink="http://www.w3.org/1999/xlink" contentStyleType="text/css" height="1297px" preserveAspectRatio="none" style="width:1502px;height:1297px;background:#FFFFFF;" version="1.1" viewBox="0 0 1502 1297" width="1502px" zoomAndPan="magnify"><defs/><g><rect fill="#FFFFFF" height="455.3477" style="stroke:#181818;stroke-width:1.0;" width="10" x="250.5" y="112.7988"/><rect fill="#FFFFFF" height="234.4844" style="stroke:#181818;stroke-width:1.0;" width="10" x="250.5" y="645.4121"/><rect fill="#FFFFFF" height="97.9316" style="stroke:#181818;stroke-width:1.0;" width="10" x="250.5" y="950.1621"/><rect fill="#FFFFFF" height="87.9316" style="stroke:#181818;stroke-width:1.0;" width="10" x="250.5" y="1110.3594"/><rect fill="none" height="46.6211" style="stroke:#000000;stroke-width:1.5;" width="1089.5" x="195" y="994.4727"/><line style="stroke:#181818;stroke-width:0.5;stroke-dasharray:5.0,5.0;" x1="23" x2="23" y1="81.4883" y2="583.1465"/><line style="stroke:#A80036;stroke-width:1.0;stroke-dasharray:1.0,4.0;" x1="23" x2="23" y1="583.1465" y2="624.1016"/><line style="stroke:#181818;stroke-width:0.5;stroke-dasharray:5.0,5.0;" x1="23" x2="23" y1="624.1016" y2="887.8965"/><line style="stroke:#A80036;stroke-width:1.0;stroke-dasharray:1.0,4.0;" x1="23" x2="23" y1="887.8965" y2="928.8516"/><line style="stroke:#181818;stroke-width:0.5;stroke-dasharray:5.0,5.0;" x1="23" x2="23" y1="928.8516" y2="1048.0938"/><line style="stroke:#A80036;stroke-width:1.0;stroke-dasharray:1.0,4.0;" x1="23" x2="23" y1="1048.0938" y2="1089.0488"/><line style="stroke:#181818;stroke-width:0.5;stroke-dasharray:5.0,5.0;" x1="23" x2="23" y1="1089.0488" y2="1216.291"/><line style="stroke:#181818;stroke-width:0.5;stroke-dasharray:5.0,5.0;" x1="123" x2="123" y1="81.4883" y2="583.1465"/><line style="stroke:#A80036;stroke-width:1.0;stroke-dasharray:1.0,4.0;" x1="123" x2="123" y1="583.1465" y2="624.1016"/><line style="stroke:#181818;stroke-width:0.5;stroke-dasharray:5.0,5.0;" x1="123" x2="123" y1="624.1016" y2="887.8965"/><line style="stroke:#A80036;stroke-width:1.0;stroke-dasharray:1.0,4.0;" x1="123" x2="123" y1="887.8965" y2="928.8516"/><line style="stroke:#181818;stroke-width:0.5;stroke-dasharray:5.0,5.0;" x1="123" x2="123" y1="928.8516" y2="1048.0938"/><line style="stroke:#A80036;stroke-width:1.0;stroke-dasharray:1.0,4.0;" x1="123" x2="123" y1="1048.0938" y2="1089.0488"/><line style="stroke:#181818;stroke-width:0.5;stroke-dasharray:5.0,5.0;" x1="123" x2="123" y1="1089.0488" y2="1216.291"/><line style="stroke:#181818;stroke-width:0.5;stroke-dasharray:5.0,5.0;" x1="255" x2="255" y1="81.4883" y2="583.1465"/><line style="stroke:#A80036;stroke-width:1.0;stroke-dasharray:1.0,4.0;" x1="255" x2="255" y1="583.1465" y2="624.1016"/><line style="stroke:#181818;stroke-width:0.5;stroke-dasharray:5.0,5.0;" x1="255" x2="255" y1="624.1016" y2="887.8965"/><line style="stroke:#A80036;stroke-width:1.0;stroke-dasharray:1.0,4.0;" x1="255" x2="255" y1="887.8965" y2="928.8516"/><line style="stroke:#181818;stroke-width:0.5;stroke-dasharray:5.0,5.0;" x1="255" x2="255" y1="928.8516" y2="1048.0938"/><line style="stroke:#A80036;stroke-width:1.0;stroke-dasharray:1.0,4.0;" x1="255" x2="255" y1="1048.0938" y2="1089.0488"/><line style="stroke:#181818;stroke-width:0.5;stroke-dasharray:5.0,5.0;" x1="255" x2="255" y1="1089.0488" y2="1216.291"/><line style="stroke:#181818;stroke-width:0.5;stroke-dasharray:5.0,5.0;" x1="818.5" x2="818.5" y1="81.4883" y2="583.1465"/><line style="stroke:#A80036;stroke-width:1.0;stroke-dasharray:1.0,4.0;" x1="818.5" x2="818.5" y1="583.1465" y2="624.1016"/><line style="stroke:#181818;stroke-width:0.5;stroke-dasharray:5.0,5.0;" x1="818.5" x2="818.5" y1="624.1016" y2="887.8965"/><line style="stroke:#A80036;stroke-width:1.0;stroke-dasharray:1.0,4.0;" x1="818.5" x2="818.5" y1="887.8965" y2="928.8516"/><line style="stroke:#181818;stroke-width:0.5;stroke-dasharray:5.0,5.0;" x1="818.5" x2="818.5" y1="928.8516" y2="1048.0938"/><line style="stroke:#A80036;stroke-width:1.0;stroke-dasharray:1.0,4.0;" x1="818.5" x2="818.5" y1="1048.0938" y2="1089.0488"/><line style="stroke:#181818;stroke-width:0.5;stroke-dasharray:5.0,5.0;" x1="818.5" x2="818.5" y1="1089.0488" y2="1216.291"/><line style="stroke:#181818;stroke-width:0.5;stroke-dasharray:5.0,5.0;" x1="951.5" x2="951.5" y1="81.4883" y2="583.1465"/><line style="stroke:#A80036;stroke-width:1.0;stroke-dasharray:1.0,4.0;" x1="951.5" x2="951.5" y1="583.1465" y2="624.1016"/><line style="stroke:#181818;stroke-width:0.5;stroke-dasharray:5.0,5.0;" x1="951.5" x2="951.5" y1="624.1016" y2="887.8965"/><line style="stroke:#A80036;stroke-width:1.0;stroke-dasharray:1.0,4.0;" x1="951.5" x2="951.5" y1="887.8965" y2="928.8516"/><line style="stroke:#181818;stroke-width:0.5;stroke-dasharray:5.0,5.0;" x1="951.5" x2="951.5" y1="928.8516" y2="1048.0938"/><line style="stroke:#A80036;stroke-width:1.0;stroke-dasharray:1.0,4.0;" x1="951.5" x2="951.5" y1="1048.0938" y2="1089.0488"/><line style="stroke:#181818;stroke-width:0.5;stroke-dasharray:5.0,5.0;" x1="951.5" x2="951.5" y1="1089.0488" y2="1216.291"/><line style="stroke:#181818;stroke-width:0.5;stroke-dasharray:5.0,5.0;" x1="1049.5" x2="1049.5" y1="81.4883" y2="583.1465"/><line style="stroke:#A80036;stroke-width:1.0;stroke-dasharray:1.0,4.0;" x1="1049.5" x2="1049.5" y1="583.1465" y2="624.1016"/><line style="stroke:#181818;stroke-width:0.5;stroke-dasharray:5.0,5.0;" x1="1049.5" x2="1049.5" y1="624.1016" y2="887.8965"/><line style="stroke:#A80036;stroke-width:1.0;stroke-dasharray:1.0,4.0;" x1="1049.5" x2="1049.5" y1="887.8965" y2="928.8516"/><line style="stroke:#181818;stroke-width:0.5;stroke-dasharray:5.0,5.0;" x1="1049.5" x2="1049.5" y1="928.8516" y2="1048.0938"/><line style="stroke:#A80036;stroke-width:1.0;stroke-dasharray:1.0,4.0;" x1="1049.5" x2="1049.5" y1="1048.0938" y2="1089.0488"/><line style="stroke:#181818;stroke-width:0.5;stroke-dasharray:5.0,5.0;" x1="1049.5" x2="1049.5" y1="1089.0488" y2="1216.291"/><line style="stroke:#181818;stroke-width:0.5;stroke-dasharray:5.0,5.0;" x1="1150.5" x2="1150.5" y1="81.4883" y2="583.1465"/><line style="stroke:#A80036;stroke-width:1.0;stroke-dasharray:1.0,4.0;" x1="1150.5" x2="1150.5" y1="583.1465" y2="624.1016"/><line style="stroke:#181818;stroke-width:0.5;stroke-dasharray:5.0,5.0;" x1="1150.5" x2="1150.5" y1="624.1016" y2="887.8965"/><line style="stroke:#A80036;stroke-width:1.0;stroke-dasharray:1.0,4.0;" x1="1150.5" x2="1150.5" y1="887.8965" y2="928.8516"/><line style="stroke:#181818;stroke-width:0.5;stroke-dasharray:5.0,5.0;" x1="1150.5" x2="1150.5" y1="928.8516" y2="1048.0938"/><line style="stroke:#A80036;stroke-width:1.0;stroke-dasharray:1.0,4.0;" x1="1150.5" x2="1150.5" y1="1048.0938" y2="1089.0488"/><line style="stroke:#181818;stroke-width:0.5;stroke-dasharray:5.0,5.0;" x1="1150.5" x2="1150.5" y1="1089.0488" y2="1216.291"/><line style="stroke:#181818;stroke-width:0.5;stroke-dasharray:5.0,5.0;" x1="1246.5" x2="1246.5" y1="81.4883" y2="583.1465"/><line style="stroke:#A80036;stroke-width:1.0;stroke-dasharray:1.0,4.0;" x1="1246.5" x2="1246.5" y1="583.1465" y2="624.1016"/><line style="stroke:#181818;stroke-width:0.5;stroke-dasharray:5.0,5.0;" x1="1246.5" x2="1246.5" y1="624.1016" y2="887.8965"/><line style="stroke:#A80036;stroke-width:1.0;stroke-dasharray:1.0,4.0;" x1="1246.5" x2="1246.5" y1="887.8965" y2="928.8516"/><line style="stroke:#181818;stroke-width:0.5;stroke-dasharray:5.0,5.0;" x1="1246.5" x2="1246.5" y1="928.8516" y2="1048.0938"/><line style="stroke:#A80036;stroke-width:1.0;stroke-dasharray:1.0,4.0;" x1="1246.5" x2="1246.5" y1="1048.0938" y2="1089.0488"/><line style="stroke:#181818;stroke-width:0.5;stroke-dasharray:5.0,5.0;" x1="1246.5" x2="1246.5" y1="1089.0488" y2="1216.291"/><line style="stroke:#181818;stroke-width:0.5;stroke-dasharray:5.0,5.0;" x1="1337.5" x2="1337.5" y1="81.4883" y2="583.1465"/><line style="stroke:#A80036;stroke-width:1.0;stroke-dasharray:1.0,4.0;" x1="1337.5" x2="1337.5" y1="583.1465" y2="624.1016"/><line style="stroke:#181818;stroke-width:0.5;stroke-dasharray:5.0,5.0;" x1="1337.5" x2="1337.5" y1="624.1016" y2="887.8965"/><line style="stroke:#A80036;stroke-width:1.0;stroke-dasharray:1.0,4.0;" x1="1337.5" x2="1337.5" y1="887.8965" y2="928.8516"/><line style="stroke:#181818;stroke-width:0.5;stroke-dasharray:5.0,5.0;" x1="1337.5" x2="1337.5" y1="928.8516" y2="1048.0938"/><line style="stroke:#A80036;stroke-width:1.0;stroke-dasharray:1.0,4.0;" x1="1337.5" x2="1337.5" y1="1048.0938" y2="1089.0488"/><line style="stroke:#181818;stroke-width:0.5;stroke-dasharray:5.0,5.0;" x1="1337.5" x2="1337.5" y1="1089.0488" y2="1216.291"/><line style="stroke:#181818;stroke-width:0.5;stroke-dasharray:5.0,5.0;" x1="1448.5" x2="1448.5" y1="81.4883" y2="583.1465"/><line style="stroke:#A80036;stroke-width:1.0;stroke-dasharray:1.0,4.0;" x1="1448.5" x2="1448.5" y1="583.1465" y2="624.1016"/><line style="stroke:#181818;stroke-width:0.5;stroke-dasharray:5.0,5.0;" x1="1448.5" x2="1448.5" y1="624.1016" y2="887.8965"/><line style="stroke:#A80036;stroke-width:1.0;stroke-dasharray:1.0,4.0;" x1="1448.5" x2="1448.5" y1="887.8965" y2="928.8516"/><line style="stroke:#181818;stroke-width:0.5;stroke-dasharray:5.0,5.0;" x1="1448.5" x2="1448.5" y1="928.8516" y2="1048.0938"/><line style="stroke:#A80036;stroke-width:1.0;stroke-dasharray:1.0,4.0;" x1="1448.5" x2="1448.5" y1="1048.0938" y2="1089.0488"/><line style="stroke:#181818;stroke-width:0.5;stroke-dasharray:5.0,5.0;" x1="1448.5" x2="1448.5" y1="1089.0488" y2="1216.291"/><text fill="#000000" font-family="sans-serif" font-size="14" lengthAdjust="spacing" textLength="31" x="5" y="78.5352">User</text><ellipse cx="23.5" cy="13.5" fill="#E2E2F0" rx="8" ry="8" style="stroke:#181818;stroke-width:0.5;"/><path d="M23.5,21.5 L23.5,48.5 M10.5,29.5 L36.5,29.5 M23.5,48.5 L10.5,63.5 M23.5,48.5 L36.5,63.5 " fill="none" style="stroke:#181818;stroke-width:0.5;"/><text fill="#000000" font-family="sans-serif" font-size="14" lengthAdjust="spacing" textLength="31" x="5" y="1228.8262">User</text><ellipse cx="23.5" cy="1240.2793" fill="#E2E2F0" rx="8" ry="8" style="stroke:#181818;stroke-width:0.5;"/><path d="M23.5,1248.2793 L23.5,1275.2793 M10.5,1256.2793 L36.5,1256.2793 M23.5,1275.2793 L10.5,1290.2793 M23.5,1275.2793 L36.5,1290.2793 " fill="none" style="stroke:#181818;stroke-width:0.5;"/><rect fill="#E2E2F0" height="30.4883" rx="2.5" ry="2.5" style="stroke:#181818;stroke-width:0.5;" width="143" x="52" y="50"/><text fill="#000000" font-family="sans-serif" font-size="14" lengthAdjust="spacing" textLength="129" x="59" y="70.5352">ui: Ui_MainWindow</text><rect fill="#E2E2F0" height="30.4883" rx="2.5" ry="2.5" style="stroke:#181818;stroke-width:0.5;" width="143" x="52" y="1215.291"/><text fill="#000000" font-family="sans-serif" font-size="14" lengthAdjust="spacing" textLength="129" x="59" y="1235.8262">ui: Ui_MainWindow</text><rect fill="#E2E2F0" height="30.4883" rx="2.5" ry="2.5" style="stroke:#181818;stroke-width:0.5;" width="101" x="205" y="50"/><text fill="#000000" font-family="sans-serif" font-size="14" lengthAdjust="spacing" textLength="87" x="212" y="70.5352">MainWindow</text><rect fill="#E2E2F0" height="30.4883" rx="2.5" ry="2.5" style="stroke:#181818;stroke-width:0.5;" width="101" x="205" y="1215.291"/><text fill="#000000" font-family="sans-serif" font-size="14" lengthAdjust="spacing" textLength="87" x="212" y="1235.8262">MainWindow</text><rect fill="#E2E2F0" height="30.4883" rx="2.5" ry="2.5" style="stroke:#181818;stroke-width:0.5;" width="134" x="751.5" y="50"/><text fill="#000000" font-family="sans-serif" font-size="14" lengthAdjust="spacing" textLength="120" x="758.5" y="70.5352">SimulationEngine</text><rect fill="#E2E2F0" height="30.4883" rx="2.5" ry="2.5" style="stroke:#181818;stroke-width:0.5;" width="134" x="751.5" y="1215.291"/><text fill="#000000" font-family="sans-serif" font-size="14" lengthAdjust="spacing" textLength="120" x="758.5" y="1235.8262">SimulationEngine</text><rect fill="#E2E2F0" height="30.4883" rx="2.5" ry="2.5" style="stroke:#181818;stroke-width:0.5;" width="112" x="895.5" y="50"/><text fill="#000000" font-family="sans-serif" font-size="14" lengthAdjust="spacing" textLength="98" x="902.5" y="70.5352">OverlayWidget</text><rect fill="#E2E2F0" height="30.4883" rx="2.5" ry="2.5" style="stroke:#181818;stroke-width:0.5;" width="112" x="895.5" y="1215.291"/><text fill="#000000" font-family="sans-serif" font-size="14" lengthAdjust="spacing" textLength="98" x="902.5" y="1235.8262">OverlayWidget</text><rect fill="#E2E2F0" height="30.4883" rx="2.5" ry="2.5" style="stroke:#181818;stroke-width:0.5;" width="65" x="1017.5" y="50"/><text fill="#000000" font-family="sans-serif" font-size="14" lengthAdjust="spacing" textLength="51" x="1024.5" y="70.5352">QTimer</text><rect fill="#E2E2F0" height="30.4883" rx="2.5" ry="2.5" style="stroke:#181818;stroke-width:0.5;" width="65" x="1017.5" y="1215.291"/><text fill="#000000" font-family="sans-serif" font-size="14" lengthAdjust="spacing" textLength="51" x="1024.5" y="1235.8262">QTimer</text><rect fill="#E2E2F0" height="30.4883" rx="2.5" ry="2.5" style="stroke:#181818;stroke-width:0.5;" width="117" x="1092.5" y="50"/><text fill="#000000" font-family="sans-serif" font-size="14" lengthAdjust="spacing" textLength="103" x="1099.5" y="70.5352">QGraphicsView</text><rect fill="#E2E2F0" height="30.4883" rx="2.5" ry="2.5" style="stroke:#181818;stroke-width:0.5;" width="117" x="1092.5" y="1215.291"/><text fill="#000000" font-family="sans-serif" font-size="14" lengthAdjust="spacing" textLength="103" x="1099.5" y="1235.8262">QGraphicsView</text><rect fill="#E2E2F0" height="30.4883" rx="2.5" ry="2.5" style="stroke:#181818;stroke-width:0.5;" width="55" x="1219.5" y="50"/><text fill="#000000" font-family="sans-serif" font-size="14" lengthAdjust="spacing" textLength="41" x="1226.5" y="70.5352">Robot</text><rect fill="#E2E2F0" height="30.4883" rx="2.5" ry="2.5" style="stroke:#181818;stroke-width:0.5;" width="55" x="1219.5" y="1215.291"/><text fill="#000000" font-family="sans-serif" font-size="14" lengthAdjust="spacing" textLength="41" x="1226.5" y="1235.8262">Robot</text><rect fill="#E2E2F0" height="30.4883" rx="2.5" ry="2.5" style="stroke:#181818;stroke-width:0.5;" width="107" x="1284.5" y="50"/><text fill="#000000" font-family="sans-serif" font-size="14" lengthAdjust="spacing" textLength="93" x="1291.5" y="70.5352">QMouseEvent</text><rect fill="#E2E2F0" height="30.4883" rx="2.5" ry="2.5" style="stroke:#181818;stroke-width:0.5;" width="107" x="1284.5" y="1215.291"/><text fill="#000000" font-family="sans-serif" font-size="14" lengthAdjust="spacing" textLength="93" x="1291.5" y="1235.8262">QMouseEvent</text><rect fill="#E2E2F0" height="30.4883" rx="2.5" ry="2.5" style="stroke:#181818;stroke-width:0.5;" width="95" x="1401.5" y="50"/><text fill="#000000" font-family="sans-serif" font-size="14" lengthAdjust="spacing" textLength="81" x="1408.5" y="70.5352">QListWidget</text><rect fill="#E2E2F0" height="30.4883" rx="2.5" ry="2.5" style="stroke:#181818;stroke-width:0.5;" width="95" x="1401.5" y="1215.291"/><text fill="#000000" font-family="sans-serif" font-size="14" lengthAdjust="spacing" textLength="81" x="1408.5" y="1235.8262">QListWidget</text><rect fill="#FFFFFF" height="455.3477" style="stroke:#181818;stroke-width:1.0;" width="10" x="250.5" y="112.7988"/><rect fill="#FFFFFF" height="234.4844" style="stroke:#181818;stroke-width:1.0;" width="10" x="250.5" y="645.4121"/><rect fill="#FFFFFF" height="97.9316" style="stroke:#181818;stroke-width:1.0;" width="10" x="250.5" y="950.1621"/><rect fill="#FFFFFF" height="87.9316" style="stroke:#181818;stroke-width:1.0;" width="10" x="250.5" y="1110.3594"/><polygon fill="#181818" points="238.5,108.7988,248.5,112.7988,238.5,116.7988,242.5,112.7988" style="stroke:#181818;stroke-width:1.0;"/><line style="stroke:#181818;stroke-width:1.0;" x1="23.5" x2="244.5" y1="112.7988" y2="112.7988"/><text fill="#000000" font-family="sans-serif" font-size="13" lengthAdjust="spacing" textLength="37" x="30.5" y="108.0566">start()</text><polygon fill="#181818" points="134.5,138.1094,124.5,142.1094,134.5,146.1094,130.5,142.1094" style="stroke:#181818;stroke-width:1.0;"/><line style="stroke:#181818;stroke-width:1.0;" x1="128.5" x2="249.5" y1="142.1094" y2="142.1094"/><text fill="#000000" font-family="sans-serif" font-size="13" lengthAdjust="spacing" textLength="80" x="140.5" y="137.3672">setupUi(this)</text><line style="stroke:#181818;stroke-width:1.0;" x1="260.5" x2="302.5" y1="171.4199" y2="171.4199"/><line style="stroke:#181818;stroke-width:1.0;" x1="302.5" x2="302.5" y1="171.4199" y2="184.4199"/><line style="stroke:#181818;stroke-width:1.0;" x1="261.5" x2="302.5" y1="184.4199" y2="184.4199"/><polygon fill="#181818" points="271.5,180.4199,261.5,184.4199,271.5,188.4199,267.5,184.4199" style="stroke:#181818;stroke-width:1.0;"/><text fill="#000000" font-family="sans-serif" font-size="13" lengthAdjust="spacing" textLength="202" x="267.5" y="166.6777">setFocusPolicy(Qt::StrongFocus)</text><line style="stroke:#181818;stroke-width:1.0;" x1="260.5" x2="302.5" y1="213.7305" y2="213.7305"/><line style="stroke:#181818;stroke-width:1.0;" x1="302.5" x2="302.5" y1="213.7305" y2="226.7305"/><line style="stroke:#181818;stroke-width:1.0;" x1="261.5" x2="302.5" y1="226.7305" y2="226.7305"/><polygon fill="#181818" points="271.5,222.7305,261.5,226.7305,271.5,230.7305,267.5,226.7305" style="stroke:#181818;stroke-width:1.0;"/><text fill="#000000" font-family="sans-serif" font-size="13" lengthAdjust="spacing" textLength="64" x="267.5" y="208.9883">setFocus()</text><polygon fill="#181818" points="806.5,252.041,816.5,256.041,806.5,260.041,810.5,256.041" style="stroke:#181818;stroke-width:1.0;"/><line style="stroke:#181818;stroke-width:1.0;" x1="260.5" x2="812.5" y1="256.041" y2="256.041"/><text fill="#000000" font-family="sans-serif" font-size="13" lengthAdjust="spacing" textLength="331" x="267.5" y="251.2988">new SimulationEngine(this, FPS, SIMULATION_SPEED)</text><polygon fill="#181818" points="1139,281.3516,1149,285.3516,1139,289.3516,1143,285.3516" style="stroke:#181818;stroke-width:1.0;"/><line style="stroke:#181818;stroke-width:1.0;" x1="260.5" x2="1145" y1="285.3516" y2="285.3516"/><text fill="#000000" font-family="sans-serif" font-size="13" lengthAdjust="spacing" textLength="109" x="267.5" y="280.6094">setScene(SimEng)</text><polygon fill="#181818" points="1139,310.6621,1149,314.6621,1139,318.6621,1143,314.6621" style="stroke:#181818;stroke-width:1.0;"/><line style="stroke:#181818;stroke-width:1.0;" x1="260.5" x2="1145" y1="314.6621" y2="314.6621"/><text fill="#000000" font-family="sans-serif" font-size="13" lengthAdjust="spacing" textLength="334" x="267.5" y="309.9199">setTransformationAnchor(QGraphicsView::NoAnchor)</text><polygon fill="#181818" points="1139,339.9727,1149,343.9727,1139,347.9727,1143,343.9727" style="stroke:#181818;stroke-width:1.0;"/><line style="stroke:#181818;stroke-width:1.0;" x1="260.5" x2="1145" y1="343.9727" y2="343.9727"/><text fill="#000000" font-family="sans-serif" font-size="13" lengthAdjust="spacing" textLength="265" x="267.5" y="339.2305">setAlignment(Qt::AlignLeft | Qt::AlignTop)</text><polygon fill="#181818" points="806.5,369.2832,816.5,373.2832,806.5,377.2832,810.5,373.2832" style="stroke:#181818;stroke-width:1.0;"/><line style="stroke:#181818;stroke-width:1.0;" x1="260.5" x2="812.5" y1="373.2832" y2="373.2832"/><text fill="#000000" font-family="sans-serif" font-size="13" lengthAdjust="spacing" textLength="205" x="267.5" y="368.541">setSceneRect(0, 0, width, height)</text><polygon fill="#181818" points="939.5,398.5938,949.5,402.5938,939.5,406.5938,943.5,402.5938" style="stroke:#181818;stroke-width:1.0;"/><line style="stroke:#181818;stroke-width:1.0;" x1="260.5" x2="945.5" y1="402.5938" y2="402.5938"/><text fill="#000000" font-family="sans-serif" font-size="13" lengthAdjust="spacing" textLength="297" x="267.5" y="397.8516">new OverlayWidget(this, SimEng, GraphicsView)</text><polygon fill="#181818" points="939.5,427.9043,949.5,431.9043,939.5,435.9043,943.5,431.9043" style="stroke:#181818;stroke-width:1.0;"/><line style="stroke:#181818;stroke-width:1.0;" x1="260.5" x2="945.5" y1="431.9043" y2="431.9043"/><text fill="#000000" font-family="sans-serif" font-size="13" lengthAdjust="spacing" textLength="119" x="267.5" y="427.1621">setGeometry(rect())</text><polygon fill="#181818" points="1038,457.2148,1048,461.2148,1038,465.2148,1042,461.2148" style="stroke:#181818;stroke-width:1.0;"/><line style="stroke:#181818;stroke-width:1.0;" x1="260.5" x2="1044" y1="461.2148" y2="461.2148"/><text fill="#000000" font-family="sans-serif" font-size="13" lengthAdjust="spacing" textLength="107" x="267.5" y="456.4727">new QTimer(this)</text><polygon fill="#181818" points="1038,486.5254,1048,490.5254,1038,494.5254,1042,490.5254" style="stroke:#181818;stroke-width:1.0;"/><line style="stroke:#181818;stroke-width:1.0;" x1="260.5" x2="1044" y1="490.5254" y2="490.5254"/><text fill="#000000" font-family="sans-serif" font-size="13" lengthAdjust="spacing" textLength="198" x="267.5" y="485.7832">start(SimEng-&gt;getFrameTime())</text><line style="stroke:#181818;stroke-width:1.0;" x1="260.5" x2="302.5" y1="519.8359" y2="519.8359"/><line style="stroke:#181818;stroke-width:1.0;" x1="302.5" x2="302.5" y1="519.8359" y2="532.8359"/><line style="stroke:#181818;stroke-width:1.0;" x1="261.5" x2="302.5" y1="532.8359" y2="532.8359"/><polygon fill="#181818" points="271.5,528.8359,261.5,532.8359,271.5,536.8359,267.5,532.8359" style="stroke:#181818;stroke-width:1.0;"/><text fill="#000000" font-family="sans-serif" font-size="13" lengthAdjust="spacing" textLength="539" x="267.5" y="515.0938">connect(ui-&gt;saveButton, &amp;QPushButton::clicked, this, &amp;MainWindow::saveSimulation)</text><line style="stroke:#181818;stroke-width:1.0;" x1="260.5" x2="302.5" y1="567.1465" y2="567.1465"/><line style="stroke:#181818;stroke-width:1.0;" x1="302.5" x2="302.5" y1="567.1465" y2="580.1465"/><line style="stroke:#181818;stroke-width:1.0;" x1="255.5" x2="302.5" y1="580.1465" y2="580.1465"/><polygon fill="#181818" points="265.5,576.1465,255.5,580.1465,265.5,584.1465,261.5,580.1465" style="stroke:#181818;stroke-width:1.0;"/><text fill="#000000" font-family="sans-serif" font-size="13" lengthAdjust="spacing" textLength="458" x="267.5" y="562.4043">connect(Timer, &amp;QTimer::timeout, this, &amp;MainWindow::updateAnimation)</text><text fill="#000000" font-family="sans-serif" font-size="11" lengthAdjust="spacing" textLength="104" x="684.25" y="607.7813">(Normal Operation)</text><polygon fill="#181818" points="238.5,641.4121,248.5,645.4121,238.5,649.4121,242.5,645.4121" style="stroke:#181818;stroke-width:1.0;"/><line style="stroke:#181818;stroke-width:1.0;" x1="23.5" x2="244.5" y1="645.4121" y2="645.4121"/><text fill="#000000" font-family="sans-serif" font-size="13" lengthAdjust="spacing" textLength="192" x="30.5" y="640.6699">mousePressEvent(MouseEvent)</text><polygon fill="#181818" points="1139,670.7227,1149,674.7227,1139,678.7227,1143,674.7227" style="stroke:#181818;stroke-width:1.0;"/><line style="stroke:#181818;stroke-width:1.0;" x1="260.5" x2="1145" y1="674.7227" y2="674.7227"/><text fill="#000000" font-family="sans-serif" font-size="13" lengthAdjust="spacing" textLength="230" x="267.5" y="669.9805">mapFromParent(MouseEvent-&gt;pos())</text><polygon fill="#181818" points="1139,700.0332,1149,704.0332,1139,708.0332,1143,704.0332" style="stroke:#181818;stroke-width:1.0;"/><line style="stroke:#181818;stroke-width:1.0;" x1="260.5" x2="1145" y1="704.0332" y2="704.0332"/><text fill="#000000" font-family="sans-serif" font-size="13" lengthAdjust="spacing" textLength="139" x="267.5" y="699.291">mapToScene(localPos)</text><polygon fill="#181818" points="1139,729.3438,1149,733.3438,1139,737.3438,1143,733.3438" style="stroke:#181818;stroke-width:1.0;"/><line style="stroke:#181818;stroke-width:1.0;" x1="260.5" x2="1145" y1="733.3438" y2="733.3438"/><text fill="#000000" font-family="sans-serif" font-size="13" lengthAdjust="spacing" textLength="165" x="267.5" y="728.6016">itemAt(scenePos.toPoint())</text><polygon fill="#181818" points="806.5,758.6543,816.5,762.6543,806.5,766.6543,810.5,762.6543" style="stroke:#181818;stroke-width:1.0;"/><line style="stroke:#181818;stroke-width:1.0;" x1="260.5" x2="812.5" y1="762.6543" y2="762.6543"/><text fill="#000000" font-family="sans-serif" font-size="13" lengthAdjust="spacing" textLength="131" x="267.5" y="757.9121">getControlledRobot()</text><polygon fill="#181818" points="1235,787.9648,1245,791.9648,1235,795.9648,1239,791.9648" style="stroke:#181818;stroke-width:1.0;"/><line style="stroke:#181818;stroke-width:1.0;" x1="260.5" x2="1241" y1="791.9648" y2="791.9648"/><text fill="#000000" font-family="sans-serif" font-size="13" lengthAdjust="spacing" textLength="87" x="267.5" y="787.2227">toggleActive()</text><polygon fill="#181818" points="806.5,817.2754,816.5,821.2754,806.5,825.2754,810.5,821.2754" style="stroke:#181818;stroke-width:1.0;"/><line style="stroke:#181818;stroke-width:1.0;" x1="260.5" x2="812.5" y1="821.2754" y2="821.2754"/><text fill="#000000" font-family="sans-serif" font-size="13" lengthAdjust="spacing" textLength="154" x="267.5" y="816.5332">setControlledRobot(null)</text><polygon fill="#181818" points="1235,846.5859,1245,850.5859,1235,854.5859,1239,850.5859" style="stroke:#181818;stroke-width:1.0;"/><line style="stroke:#181818;stroke-width:1.0;" x1="260.5" x2="1241" y1="850.5859" y2="850.5859"/><text fill="#000000" font-family="sans-serif" font-size="13" lengthAdjust="spacing" textLength="87" x="267.5" y="845.8438">toggleActive()</text><polygon fill="#181818" points="939.5,875.8965,949.5,879.8965,939.5,883.8965,943.5,879.8965" style="stroke:#181818;stroke-width:1.0;"/><line style="stroke:#181818;stroke-width:1.0;" x1="255.5" x2="945.5" y1="879.8965" y2="879.8965"/><text fill="#000000" font-family="sans-serif" font-size="13" lengthAdjust="spacing" textLength="141" x="262.5" y="875.1543">trySetSail(MouseEvent)</text><text fill="#000000" font-family="sans-serif" font-size="11" lengthAdjust="spacing" textLength="80" x="696.25" y="912.5313">(Timer Update)</text><polygon fill="#181818" points="271.5,946.1621,261.5,950.1621,271.5,954.1621,267.5,950.1621" style="stroke:#181818;stroke-width:1.0;"/><line style="stroke:#181818;stroke-width:1.0;" x1="265.5" x2="1049" y1="950.1621" y2="950.1621"/><text fill="#000000" font-family="sans-serif" font-size="13" lengthAdjust="spacing" textLength="116" x="277.5" y="945.4199">updateAnimation()</text><polygon fill="#181818" points="806.5,975.4727,816.5,979.4727,806.5,983.4727,810.5,979.4727" style="stroke:#181818;stroke-width:1.0;"/><line style="stroke:#181818;stroke-width:1.0;" x1="260.5" x2="812.5" y1="979.4727" y2="979.4727"/><text fill="#000000" font-family="sans-serif" font-size="13" lengthAdjust="spacing" textLength="43" x="267.5" y="974.7305">items()</text><path d="M195,994.4727 L269,994.4727 L269,1001.7832 L259,1011.7832 L195,1011.7832 L195,994.4727 " fill="#EEEEEE" style="stroke:#000000;stroke-width:1.5;"/><rect fill="none" height="46.6211" style="stroke:#000000;stroke-width:1.5;" width="1089.5" x="195" y="994.4727"/><text fill="#000000" font-family="sans-serif" font-size="13" font-weight="bold" lengthAdjust="spacing" textLength="29" x="210" y="1008.041">loop</text><text fill="#000000" font-family="sans-serif" font-size="11" font-weight="bold" lengthAdjust="spacing" textLength="141" x="284" y="1007.1074">[for each Robot in Scene]</text><polygon fill="#181818" points="1235,1029.0938,1245,1033.0938,1235,1037.0938,1239,1033.0938" style="stroke:#181818;stroke-width:1.0;"/><line style="stroke:#181818;stroke-width:1.0;" x1="260.5" x2="1241" y1="1033.0938" y2="1033.0938"/><text fill="#000000" font-family="sans-serif" font-size="13" lengthAdjust="spacing" textLength="42" x="267.5" y="1028.3516">move()</text><text fill="#000000" font-family="sans-serif" font-size="11" lengthAdjust="spacing" textLength="91" x="690.75" y="1072.7285">(Save Simulation)</text><polygon fill="#181818" points="238.5,1106.3594,248.5,1110.3594,238.5,1114.3594,242.5,1110.3594" style="stroke:#181818;stroke-width:1.0;"/><line style="stroke:#181818;stroke-width:1.0;" x1="23.5" x2="244.5" y1="1110.3594" y2="1110.3594"/><text fill="#000000" font-family="sans-serif" font-size="13" lengthAdjust="spacing" textLength="103" x="30.5" y="1105.6172">saveSimulation()</text><polygon fill="#181818" points="806.5,1135.6699,816.5,1139.6699,806.5,1143.6699,810.5,1139.6699" style="stroke:#181818;stroke-width:1.0;"/><line style="stroke:#181818;stroke-width:1.0;" x1="260.5" x2="812.5" y1="1139.6699" y2="1139.6699"/><text fill="#000000" font-family="sans-serif" font-size="13" lengthAdjust="spacing" textLength="151" x="267.5" y="1134.9277">setSimulationSpeed(0.0)</text><polygon fill="#181818" points="806.5,1164.9805,816.5,1168.9805,806.5,1172.9805,810.5,1168.9805" style="stroke:#181818;stroke-width:1.0;"/><line style="stroke:#181818;stroke-width:1.0;" x1="260.5" x2="812.5" y1="1168.9805" y2="1168.9805"/><text fill="#000000" font-family="sans-serif" font-size="13" lengthAdjust="spacing" textLength="180" x="267.5" y="1164.2383">saveSimulation("simulation")</text><polygon fill="#181818" points="806.5,1194.291,816.5,1198.291,806.5,1202.291,810.5,1198.291" style="stroke:#181818;stroke-width:1.0;"/><line style="stroke:#181818;stroke-width:1.0;" x1="255.5" x2="812.5" y1="1198.291" y2="1198.291"/><text fill="#000000" font-family="sans-serif" font-size="13" lengthAdjust="spacing" textLength="222" x="262.5" y="1193.5488">setSimulationSpeed(previousSpeed)</text><!--SRC=[ZLJRRgCm47tdAwmyL22HgCyyHChk9bMaNkWIje-L5wPWBNYGRL9LsezVNoYtXcuZf7WynpFZEMTCCuM2f1A4rr2XMCOQoXLPjImYANk-eum_CPxZwufGITBZ53Lp6tCAI5ZTLbGnv7jUC0uMfZUrDGK-d45KzEs9vGKeY-fsfh374wj1MBzTpRmtWZObo-Gl1gwYySOK-nD_eqjaLxD0TzXAs9-1EyXWpd2tJAfHpOFfUQQdPBsrJI4HaKeVz0EFPegTgGBNBCzwDIez6WoejacPhqecWzxr7W3K0RDMnbYnxCr_L56KA86yiBkBS9soTxd6QoU7LpAdncODoI5EGf8SxzBRtUduSF-SnFlzZo7wkA4kIvA1Fkn2VuOx2Shb2uhQvjpnh4JXJnYBedjq-v_5sLMiuBMcmhR0MhVmeiXVqjidR8AFbtwlzITaohyEYVvUMQxAa9J0YbAD6jLfh-lKH9jTcrpKS59VSE6yJde3M8CIRxumYODH6YlXBebJzepwTu0JZykvtkeg3eBMOBoJU1tr6N9kKhLilPNq3DzQfP27vEenRcNfh2ZAj8p-G1uITw6hOPQZo9mQz14i9R3bcRXs4KLA_s6hBePicrohViTPtSNqSfZDmcQp8VwzKKX57XeG3aZqzeTfgir0nWAaj5Ff3mCwdx058TMqEGYiOogcnzVR1gLfwlAv4ph9LvZHAaQvY6KAwftofK5ht4PXZ8ohSVHUd9hJxyZrF5SLvFP5yWUKjJL8OL5Ki3Ft0_-omkT1U5jLNmuqo5RBDT7ZGbarQUrbofnAKqjmHvVR6lYQiUyliTHVnVJEl5qLOaFqgq5qvhAhNqCj0nxHl_dLQhHN0fulL9jeROyUlylwcWx0_yirRqiFJng0tB_UN5-YQ1fu9VlrAlXIs4R0cMbAhFMHaNy0]--></g></svg>